<svg xmlns="http://www.w3.org/2000/svg" viewBox="0 0 512 512" width="512" height="512">
  <defs>
    <linearGradient id="bg" x1="0" y1="0" x2="1" y2="1">
      <stop offset="0" stop-color="#6366f1"/>
      <stop offset="1" stop-color="#0ea5e9"/>
    </linearGradient>
  </defs>
  <rect width="512" height="512" rx="112" fill="url(#bg)"/>
  <path fill="#ffffff" d="M256 132c10 62 50 102 112 112-62 10-102 50-112 112-10-62-50-102-112-112 62-10 102-50 112-112Z"/>
  <path fill="#ffffff" opacity="0.85" d="M372 96c4 26 20 42 46 46-26 4-42 20-46 46-4-26-20-42-46-46 26-4 42-20 46-46Z"/>
</svg>
